<svg width="144" height="54" viewBox="0 0 144 54" fill="none" xmlns="http://www.w3.org/2000/svg">
<g clip-path="url(#clip0_8_2)">
<path d="M98.2312 30.2H100.535V47H98.2312V30.2ZM104.132 35.048H106.268V37.4L108.62 35.048H112.364L114.716 37.4V47H112.484V38.072L111.404 36.992H109.124L106.364 39.752V47H104.132V35.048ZM117.72 44.72V37.328L120 35.048H126.024L128.328 37.352V39.056H126.096V38.072L125.016 36.992H121.032L119.952 38.072V43.976L121.032 45.056H125.016L126.096 43.976V42.992H128.328V44.696L126.024 47H120L117.72 44.72Z" fill="black"/>
<path d="M17.029 9.55171H21.565L29.053 25.8237H29.125L36.649 9.55171H41.185V34.7517H36.469V19.4157H36.397L30.601 31.2237H27.577L21.817 19.4157H21.745V34.7517H17.029V9.55171ZM45.3171 31.0077V20.5677L49.0251 16.8237H59.3211L63.0291 20.5677V31.0077L59.3211 34.7517H49.0251L45.3171 31.0077ZM57.0171 30.7917L58.2771 29.5317V22.0437L57.0171 20.7837H51.3291L50.0691 22.0437V29.5317L51.3291 30.7917H57.0171ZM66.4418 31.4397V27.3357L69.7538 24.0237H78.8618V21.7557L77.7458 20.6397H72.3458L71.2658 21.7557V22.7637H66.5858V20.7117L70.4378 16.8237H79.6898L83.5418 20.7117V34.7517H79.2578V32.1957L76.5938 34.7517H69.7538L66.4418 31.4397ZM76.2698 31.0797L78.8618 28.5957V27.4077H72.0938L71.1218 28.3797V30.1797L72.0218 31.0797H76.2698ZM87.6888 16.8237H92.0808V19.8117L94.9608 16.8237H100.073V20.8557H95.9328L92.4408 24.4557V34.7517H87.6888V16.8237Z" fill="black"/>
<path d="M94.0195 39.8589L17.0273 39.8589" stroke="black" stroke-width="3.5"/>
</g>
<defs>
<clipPath id="clip0_8_2">
<rect width="144" height="54" fill="white"/>
</clipPath>
</defs>
</svg>
