<svg width="144" height="54" viewBox="0 0 144 54" fill="none" xmlns="http://www.w3.org/2000/svg">
<g clip-path="url(#clip0_9_79)">
<path d="M98.2312 30.2H100.535V47H98.2312V30.2ZM104.132 35.048H106.268V37.4L108.62 35.048H112.364L114.716 37.4V47H112.484V38.072L111.404 36.992H109.124L106.364 39.752V47H104.132V35.048ZM117.72 44.72V37.328L120 35.048H126.024L128.328 37.352V39.056H126.096V38.072L125.016 36.992H121.032L119.952 38.072V43.976L121.032 45.056H125.016L126.096 43.976V42.992H128.328V44.696L126.024 47H120L117.72 44.72Z" fill="white"/>
<path d="M17.029 9.55171H21.565L29.053 25.8237H29.125L36.649 9.55171H41.185V34.7517H36.469V19.4157H36.397L30.601 31.2237H27.577L21.817 19.4157H21.745V34.7517H17.029V9.55171ZM45.3171 31.0077V20.5677L49.0251 16.8237H59.3211L63.0291 20.5677V31.0077L59.3211 34.7517H49.0251L45.3171 31.0077ZM57.0171 30.7917L58.2771 29.5317V22.0437L57.0171 20.7837H51.3291L50.0691 22.0437V29.5317L51.3291 30.7917H57.0171ZM66.4418 31.4397V27.3357L69.7538 24.0237H78.8618V21.7557L77.7458 20.6397H72.3458L71.2658 21.7557V22.7637H66.5858V20.7117L70.4378 16.8237H79.6898L83.5418 20.7117V34.7517H79.2578V32.1957L76.5938 34.7517H69.7538L66.4418 31.4397ZM76.2698 31.0797L78.8618 28.5957V27.4077H72.0938L71.1218 28.3797V30.1797L72.0218 31.0797H76.2698ZM87.6888 16.8237H92.0808V19.8117L94.9608 16.8237H100.073V20.8557H95.9328L92.4408 24.4557V34.7517H87.6888V16.8237Z" fill="white"/>
<path d="M17.029 9.55171V8.55171H16.029V9.55171H17.029ZM21.565 9.55171L22.4734 9.13367L22.2056 8.55171H21.565V9.55171ZM29.053 25.8237L28.1445 26.2417L28.4123 26.8237H29.053V25.8237ZM29.125 25.8237V26.8237H29.7643L30.0326 26.2434L29.125 25.8237ZM36.649 9.55171V8.55171H36.0096L35.7413 9.13201L36.649 9.55171ZM41.185 9.55171H42.185V8.55171H41.185V9.55171ZM41.185 34.7517V35.7517H42.185V34.7517H41.185ZM36.469 34.7517H35.469V35.7517H36.469V34.7517ZM36.469 19.4157H37.469V18.4157H36.469V19.4157ZM36.397 19.4157V18.4157H35.7738L35.4993 18.9751L36.397 19.4157ZM30.601 31.2237V32.2237H31.2241L31.4987 31.6643L30.601 31.2237ZM27.577 31.2237L26.6782 31.6621L26.9521 32.2237H27.577V31.2237ZM21.817 19.4157L22.7157 18.9773L22.4418 18.4157H21.817V19.4157ZM21.745 19.4157V18.4157H20.745V19.4157H21.745ZM21.745 34.7517V35.7517H22.745V34.7517H21.745ZM17.029 34.7517H16.029V35.7517H17.029V34.7517ZM17.029 10.5517H21.565V8.55171H17.029V10.5517ZM20.6565 9.96975L28.1445 26.2417L29.9614 25.4057L22.4734 9.13367L20.6565 9.96975ZM29.053 26.8237H29.125V24.8237H29.053V26.8237ZM30.0326 26.2434L37.5566 9.9714L35.7413 9.13201L28.2173 25.404L30.0326 26.2434ZM36.649 10.5517H41.185V8.55171H36.649V10.5517ZM40.185 9.55171V34.7517H42.185V9.55171H40.185ZM41.185 33.7517H36.469V35.7517H41.185V33.7517ZM37.469 34.7517V19.4157H35.469V34.7517H37.469ZM36.469 18.4157H36.397V20.4157H36.469V18.4157ZM35.4993 18.9751L29.7033 30.7831L31.4987 31.6643L37.2947 19.8563L35.4993 18.9751ZM30.601 30.2237H27.577V32.2237H30.601V30.2237ZM28.4757 30.7853L22.7157 18.9773L20.9182 19.8541L26.6782 31.6621L28.4757 30.7853ZM21.817 18.4157H21.745V20.4157H21.817V18.4157ZM20.745 19.4157V34.7517H22.745V19.4157H20.745ZM21.745 33.7517H17.029V35.7517H21.745V33.7517ZM18.029 34.7517V9.55171H16.029V34.7517H18.029ZM45.3171 31.0077H44.3171V31.4191L44.6066 31.7114L45.3171 31.0077ZM45.3171 20.5677L44.6066 19.864L44.3171 20.1563V20.5677H45.3171ZM49.0251 16.8237V15.8237H48.608L48.3146 16.12L49.0251 16.8237ZM59.3211 16.8237L60.0316 16.12L59.7381 15.8237H59.3211V16.8237ZM63.0291 20.5677H64.0291V20.1563L63.7396 19.864L63.0291 20.5677ZM63.0291 31.0077L63.7396 31.7114L64.0291 31.4191V31.0077H63.0291ZM59.3211 34.7517V35.7517H59.7381L60.0316 35.4554L59.3211 34.7517ZM49.0251 34.7517L48.3146 35.4554L48.608 35.7517H49.0251V34.7517ZM57.0171 30.7917V31.7917H57.4313L57.7242 31.4988L57.0171 30.7917ZM58.2771 29.5317L58.9842 30.2388L59.2771 29.9459V29.5317H58.2771ZM58.2771 22.0437H59.2771V21.6295L58.9842 21.3366L58.2771 22.0437ZM57.0171 20.7837L57.7242 20.0766L57.4313 19.7837H57.0171V20.7837ZM51.3291 20.7837V19.7837H50.9149L50.622 20.0766L51.3291 20.7837ZM50.0691 22.0437L49.362 21.3366L49.0691 21.6295V22.0437H50.0691ZM50.0691 29.5317H49.0691V29.9459L49.362 30.2388L50.0691 29.5317ZM51.3291 30.7917L50.622 31.4988L50.9149 31.7917H51.3291V30.7917ZM46.3171 31.0077V20.5677H44.3171V31.0077H46.3171ZM46.0276 21.2714L49.7356 17.5274L48.3146 16.12L44.6066 19.864L46.0276 21.2714ZM49.0251 17.8237H59.3211V15.8237H49.0251V17.8237ZM58.6106 17.5274L62.3186 21.2714L63.7396 19.864L60.0316 16.12L58.6106 17.5274ZM62.0291 20.5677V31.0077H64.0291V20.5677H62.0291ZM62.3186 30.304L58.6106 34.048L60.0316 35.4554L63.7396 31.7114L62.3186 30.304ZM59.3211 33.7517H49.0251V35.7517H59.3211V33.7517ZM49.7356 34.048L46.0276 30.304L44.6066 31.7114L48.3146 35.4554L49.7356 34.048ZM57.7242 31.4988L58.9842 30.2388L57.57 28.8246L56.31 30.0846L57.7242 31.4988ZM59.2771 29.5317V22.0437H57.2771V29.5317H59.2771ZM58.9842 21.3366L57.7242 20.0766L56.31 21.4908L57.57 22.7508L58.9842 21.3366ZM57.0171 19.7837H51.3291V21.7837H57.0171V19.7837ZM50.622 20.0766L49.362 21.3366L50.7762 22.7508L52.0362 21.4908L50.622 20.0766ZM49.0691 22.0437V29.5317H51.0691V22.0437H49.0691ZM49.362 30.2388L50.622 31.4988L52.0362 30.0846L50.7762 28.8246L49.362 30.2388ZM51.3291 31.7917H57.0171V29.7917H51.3291V31.7917ZM66.4418 31.4397H65.4418V31.8539L65.7347 32.1468L66.4418 31.4397ZM66.4418 27.3357L65.7347 26.6286L65.4418 26.9215V27.3357H66.4418ZM69.7538 24.0237V23.0237H69.3396L69.0467 23.3166L69.7538 24.0237ZM78.8618 24.0237V25.0237H79.8618V24.0237H78.8618ZM78.8618 21.7557H79.8618V21.3415L79.5689 21.0486L78.8618 21.7557ZM77.7458 20.6397L78.4529 19.9326L78.16 19.6397H77.7458V20.6397ZM72.3458 20.6397V19.6397H71.9219L71.6272 19.9443L72.3458 20.6397ZM71.2658 21.7557L70.5472 21.0603L70.2658 21.3511V21.7557H71.2658ZM71.2658 22.7637V23.7637H72.2658V22.7637H71.2658ZM66.5858 22.7637H65.5858V23.7637H66.5858V22.7637ZM66.5858 20.7117L65.8754 20.0079L65.5858 20.3002V20.7117H66.5858ZM70.4378 16.8237V15.8237H70.0208L69.7274 16.1199L70.4378 16.8237ZM79.6898 16.8237L80.4002 16.1199L80.1067 15.8237H79.6898V16.8237ZM83.5418 20.7117H84.5418V20.3002L84.2522 20.0079L83.5418 20.7117ZM83.5418 34.7517V35.7517H84.5418V34.7517H83.5418ZM79.2578 34.7517H78.2578V35.7517H79.2578V34.7517ZM79.2578 32.1957H80.2578V29.8504L78.5654 31.4741L79.2578 32.1957ZM76.5938 34.7517V35.7517H76.9959L77.2861 35.4733L76.5938 34.7517ZM69.7538 34.7517L69.0467 35.4588L69.3396 35.7517H69.7538V34.7517ZM76.2698 31.0797V32.0797H76.6716L76.9617 31.8017L76.2698 31.0797ZM78.8618 28.5957L79.5537 29.3177L79.8618 29.0224V28.5957H78.8618ZM78.8618 27.4077H79.8618V26.4077H78.8618V27.4077ZM72.0938 27.4077V26.4077H71.6796L71.3867 26.7006L72.0938 27.4077ZM71.1218 28.3797L70.4147 27.6726L70.1218 27.9655V28.3797H71.1218ZM71.1218 30.1797H70.1218V30.5939L70.4147 30.8868L71.1218 30.1797ZM72.0218 31.0797L71.3147 31.7868L71.6076 32.0797H72.0218V31.0797ZM67.4418 31.4397V27.3357H65.4418V31.4397H67.4418ZM67.1489 28.0428L70.4609 24.7308L69.0467 23.3166L65.7347 26.6286L67.1489 28.0428ZM69.7538 25.0237H78.8618V23.0237H69.7538V25.0237ZM79.8618 24.0237V21.7557H77.8618V24.0237H79.8618ZM79.5689 21.0486L78.4529 19.9326L77.0387 21.3468L78.1547 22.4628L79.5689 21.0486ZM77.7458 19.6397H72.3458V21.6397H77.7458V19.6397ZM71.6272 19.9443L70.5472 21.0603L71.9844 22.4511L73.0644 21.3351L71.6272 19.9443ZM70.2658 21.7557V22.7637H72.2658V21.7557H70.2658ZM71.2658 21.7637H66.5858V23.7637H71.2658V21.7637ZM67.5858 22.7637V20.7117H65.5858V22.7637H67.5858ZM67.2962 21.4155L71.1482 17.5275L69.7274 16.1199L65.8754 20.0079L67.2962 21.4155ZM70.4378 17.8237H79.6898V15.8237H70.4378V17.8237ZM78.9794 17.5275L82.8314 21.4155L84.2522 20.0079L80.4002 16.1199L78.9794 17.5275ZM82.5418 20.7117V34.7517H84.5418V20.7117H82.5418ZM83.5418 33.7517H79.2578V35.7517H83.5418V33.7517ZM80.2578 34.7517V32.1957H78.2578V34.7517H80.2578ZM78.5654 31.4741L75.9014 34.0301L77.2861 35.4733L79.9501 32.9173L78.5654 31.4741ZM76.5938 33.7517H69.7538V35.7517H76.5938V33.7517ZM70.4609 34.0446L67.1489 30.7326L65.7347 32.1468L69.0467 35.4588L70.4609 34.0446ZM76.9617 31.8017L79.5537 29.3177L78.1699 27.8737L75.5779 30.3577L76.9617 31.8017ZM79.8618 28.5957V27.4077H77.8618V28.5957H79.8618ZM78.8618 26.4077H72.0938V28.4077H78.8618V26.4077ZM71.3867 26.7006L70.4147 27.6726L71.8289 29.0868L72.8009 28.1148L71.3867 26.7006ZM70.1218 28.3797V30.1797H72.1218V28.3797H70.1218ZM70.4147 30.8868L71.3147 31.7868L72.7289 30.3726L71.8289 29.4726L70.4147 30.8868ZM72.0218 32.0797H76.2698V30.0797H72.0218V32.0797ZM87.6888 16.8237V15.8237H86.6888V16.8237H87.6888ZM92.0808 16.8237H93.0808V15.8237H92.0808V16.8237ZM92.0808 19.8117H91.0808V22.2902L92.8008 20.5057L92.0808 19.8117ZM94.9608 16.8237V15.8237H94.5358L94.2408 16.1297L94.9608 16.8237ZM100.073 16.8237H101.073V15.8237H100.073V16.8237ZM100.073 20.8557V21.8557H101.073V20.8557H100.073ZM95.9328 20.8557V19.8557H95.5096L95.215 20.1595L95.9328 20.8557ZM92.4408 24.4557L91.723 23.7595L91.4408 24.0504V24.4557H92.4408ZM92.4408 34.7517V35.7517H93.4408V34.7517H92.4408ZM87.6888 34.7517H86.6888V35.7517H87.6888V34.7517ZM87.6888 17.8237H92.0808V15.8237H87.6888V17.8237ZM91.0808 16.8237V19.8117H93.0808V16.8237H91.0808ZM92.8008 20.5057L95.6808 17.5177L94.2408 16.1297L91.3608 19.1177L92.8008 20.5057ZM94.9608 17.8237H100.073V15.8237H94.9608V17.8237ZM99.0728 16.8237V20.8557H101.073V16.8237H99.0728ZM100.073 19.8557H95.9328V21.8557H100.073V19.8557ZM95.215 20.1595L91.723 23.7595L93.1586 25.152L96.6506 21.552L95.215 20.1595ZM91.4408 24.4557V34.7517H93.4408V24.4557H91.4408ZM92.4408 33.7517H87.6888V35.7517H92.4408V33.7517ZM88.6888 34.7517V16.8237H86.6888V34.7517H88.6888Z" fill="white"/>
<path d="M94.0195 39.8589L17.0273 39.8589" stroke="white" stroke-width="3.5"/>
</g>
<defs>
<clipPath id="clip0_9_79">
<rect width="144" height="54" fill="white"/>
</clipPath>
</defs>
</svg>
