<svg width="294" height="270" viewBox="0 0 294 270" fill="none" xmlns="http://www.w3.org/2000/svg">
<path d="M188.296 55.4173L187.943 55.3089L187.576 55.2672C180.823 54.4993 170.183 53.5785 160.146 53.3093C155.132 53.1748 150.199 53.2008 145.947 53.5027C141.835 53.7946 137.878 54.3698 135.121 55.5777C134.974 55.6421 134.825 55.7072 134.676 55.773C131.806 57.0333 128.376 58.5402 123.084 59.6252C117.487 60.7729 109.669 61.4702 98.2899 60.6725C89.0777 60.0267 80.5482 57.5758 71.0253 53.0998C64.1272 45.9519 52.3779 35.5558 41.9465 28.2006C36.6598 24.473 31.385 21.2894 27.1123 19.8405C25.0541 19.1425 22.5778 18.6128 20.267 19.2159C19.0085 19.5444 17.7889 20.2147 16.83 21.3308C15.8911 22.4236 15.4019 23.7103 15.1868 24.9686C12.9674 37.9501 10.5408 58.5958 10.4658 78.4703C10.4283 88.4064 10.9775 98.2573 12.473 106.911C13.9147 115.254 16.3012 122.892 20.223 128.392C21.1161 130.795 20.9908 133.801 19.9629 137.663C19.1024 140.896 17.7609 144.231 16.3112 147.835C15.9214 148.804 15.5237 149.792 15.1255 150.804C13.3331 155.355 11.5283 160.379 11.1729 165.24C10.8015 170.319 12.0036 175.425 16.32 179.685C22.9856 186.262 45.3514 207.74 71.8401 226.882C85.081 236.451 99.4602 245.515 113.505 251.836C127.468 258.121 141.548 261.899 154.024 260.331C166.183 258.803 180.373 252.887 194.579 244.973C208.862 237.018 223.487 226.858 236.59 216.518C249.69 206.179 261.357 195.589 269.707 186.731C273.872 182.312 277.289 178.244 279.651 174.797C280.829 173.077 281.81 171.419 282.485 169.879C283.117 168.437 283.688 166.644 283.499 164.824C282.824 158.29 281.012 147.895 278.13 137.58C275.396 127.793 271.549 117.511 266.449 110.782C265.593 106.091 266.088 99.4788 267.34 91.3829C267.991 87.17 268.819 82.704 269.691 78.0699C269.77 77.6474 269.85 77.2235 269.93 76.7983C270.724 72.5813 271.541 68.2418 272.261 63.9276C273.84 54.4745 275.012 44.826 274.439 36.3007C273.868 27.8051 271.518 19.7541 265.39 14.2639C262.227 11.429 258.888 9.29601 255.151 9.3146C251.281 9.33385 248.311 11.6338 245.891 14.191C243.594 16.6186 241.12 20.0245 238.291 23.9196C238.112 24.1662 237.932 24.4149 237.75 24.6654C234.624 28.9653 230.879 34.0792 226.048 39.883C211.406 57.4726 194.303 57.2588 188.296 55.4173Z" fill="#0E0E0E" stroke="white" stroke-width="8"/>
<path d="M198.333 147.228H201.789V172.428H198.333V147.228ZM207.184 154.5H210.388V158.028L213.916 154.5H219.532L223.06 158.028V172.428H219.712V159.036L218.092 157.416H214.672L210.532 161.556V172.428H207.184V154.5ZM227.566 169.008V157.92L230.986 154.5H240.022L243.478 157.956V160.512H240.13V159.036L238.51 157.416H232.534L230.914 159.036V167.892L232.534 169.512H238.51L240.13 167.892V166.416H243.478V168.972L240.022 172.428H230.986L227.566 169.008Z" fill="white"/>
<path d="M52.7072 104.772H60.7712L74.0832 133.7H74.2112L87.5872 104.772H95.6512V149.572H87.2672V122.308H87.1392L76.8352 143.3H71.4592L61.2192 122.308H61.0912V149.572H52.7072V104.772ZM102.997 142.916V124.356L109.589 117.7H127.893L134.485 124.356V142.916L127.893 149.572H109.589L102.997 142.916ZM123.797 142.532L126.037 140.292V126.98L123.797 124.74H113.685L111.445 126.98V140.292L113.685 142.532H123.797ZM140.552 143.684V136.388L146.44 130.5H162.632V126.468L160.648 124.484H151.048L149.128 126.468V128.26H140.808V124.612L147.656 117.7H164.104L170.952 124.612V149.572H163.336V145.028L158.6 149.572H146.44L140.552 143.684ZM158.024 143.044L162.632 138.628V136.516H150.6L148.872 138.244V141.444L150.472 143.044H158.024ZM178.325 117.7H186.133V123.012L191.253 117.7H200.341V124.868H192.981L186.773 131.268V149.572H178.325V117.7Z" fill="white"/>
<path d="M52.7072 104.772V103.772H51.7072V104.772H52.7072ZM60.7712 104.772L61.6797 104.354L61.4119 103.772H60.7712V104.772ZM74.0832 133.7L73.1748 134.118L73.4426 134.7H74.0832V133.7ZM74.2112 133.7V134.7H74.8506L75.1189 134.12L74.2112 133.7ZM87.5872 104.772V103.772H86.9479L86.6796 104.353L87.5872 104.772ZM95.6512 104.772H96.6512V103.772H95.6512V104.772ZM95.6512 149.572V150.572H96.6512V149.572H95.6512ZM87.2672 149.572H86.2672V150.572H87.2672V149.572ZM87.2672 122.308H88.2672V121.308H87.2672V122.308ZM87.1392 122.308V121.308H86.5161L86.2416 121.868L87.1392 122.308ZM76.8352 143.3V144.3H77.4584L77.7329 143.741L76.8352 143.3ZM71.4592 143.3L70.5605 143.739L70.8344 144.3H71.4592V143.3ZM61.2192 122.308L62.118 121.87L61.8441 121.308H61.2192V122.308ZM61.0912 122.308V121.308H60.0912V122.308H61.0912ZM61.0912 149.572V150.572H62.0912V149.572H61.0912ZM52.7072 149.572H51.7072V150.572H52.7072V149.572ZM52.7072 105.772H60.7712V103.772H52.7072V105.772ZM59.8628 105.19L73.1748 134.118L74.9917 133.282L61.6797 104.354L59.8628 105.19ZM74.0832 134.7H74.2112V132.7H74.0832V134.7ZM75.1189 134.12L88.4949 105.192L86.6796 104.353L73.3036 133.281L75.1189 134.12ZM87.5872 105.772H95.6512V103.772H87.5872V105.772ZM94.6512 104.772V149.572H96.6512V104.772H94.6512ZM95.6512 148.572H87.2672V150.572H95.6512V148.572ZM88.2672 149.572V122.308H86.2672V149.572H88.2672ZM87.2672 121.308H87.1392V123.308H87.2672V121.308ZM86.2416 121.868L75.9376 142.86L77.7329 143.741L88.0369 122.749L86.2416 121.868ZM76.8352 142.3H71.4592V144.3H76.8352V142.3ZM72.358 142.862L62.118 121.87L60.3205 122.747L70.5605 143.739L72.358 142.862ZM61.2192 121.308H61.0912V123.308H61.2192V121.308ZM60.0912 122.308V149.572H62.0912V122.308H60.0912ZM61.0912 148.572H52.7072V150.572H61.0912V148.572ZM53.7072 149.572V104.772H51.7072V149.572H53.7072ZM102.997 142.916H101.997V143.328L102.287 143.62L102.997 142.916ZM102.997 124.356L102.287 123.653L101.997 123.945V124.356H102.997ZM109.589 117.7V116.7H109.172L108.879 116.997L109.589 117.7ZM127.893 117.7L128.604 116.997L128.31 116.7H127.893V117.7ZM134.485 124.356H135.485V123.945L135.196 123.653L134.485 124.356ZM134.485 142.916L135.196 143.62L135.485 143.328V142.916H134.485ZM127.893 149.572V150.572H128.31L128.604 150.276L127.893 149.572ZM109.589 149.572L108.879 150.276L109.172 150.572H109.589V149.572ZM123.797 142.532V143.532H124.211L124.504 143.239L123.797 142.532ZM126.037 140.292L126.744 140.999L127.037 140.706V140.292H126.037ZM126.037 126.98H127.037V126.566L126.744 126.273L126.037 126.98ZM123.797 124.74L124.504 124.033L124.211 123.74H123.797V124.74ZM113.685 124.74V123.74H113.271L112.978 124.033L113.685 124.74ZM111.445 126.98L110.738 126.273L110.445 126.566V126.98H111.445ZM111.445 140.292H110.445V140.706L110.738 140.999L111.445 140.292ZM113.685 142.532L112.978 143.239L113.271 143.532H113.685V142.532ZM103.997 142.916V124.356H101.997V142.916H103.997ZM103.708 125.06L110.3 118.404L108.879 116.997L102.287 123.653L103.708 125.06ZM109.589 118.7H127.893V116.7H109.589V118.7ZM127.183 118.404L133.775 125.06L135.196 123.653L128.604 116.997L127.183 118.404ZM133.485 124.356V142.916H135.485V124.356H133.485ZM133.775 142.213L127.183 148.869L128.604 150.276L135.196 143.62L133.775 142.213ZM127.893 148.572H109.589V150.572H127.893V148.572ZM110.3 148.869L103.708 142.213L102.287 143.62L108.879 150.276L110.3 148.869ZM124.504 143.239L126.744 140.999L125.33 139.585L123.09 141.825L124.504 143.239ZM127.037 140.292V126.98H125.037V140.292H127.037ZM126.744 126.273L124.504 124.033L123.09 125.447L125.33 127.687L126.744 126.273ZM123.797 123.74H113.685V125.74H123.797V123.74ZM112.978 124.033L110.738 126.273L112.152 127.687L114.392 125.447L112.978 124.033ZM110.445 126.98V140.292H112.445V126.98H110.445ZM110.738 140.999L112.978 143.239L114.392 141.825L112.152 139.585L110.738 140.999ZM113.685 143.532H123.797V141.532H113.685V143.532ZM140.552 143.684H139.552V144.098L139.845 144.391L140.552 143.684ZM140.552 136.388L139.845 135.681L139.552 135.974V136.388H140.552ZM146.44 130.5V129.5H146.026L145.733 129.793L146.44 130.5ZM162.632 130.5V131.5H163.632V130.5H162.632ZM162.632 126.468H163.632V126.054L163.339 125.761L162.632 126.468ZM160.648 124.484L161.355 123.777L161.062 123.484H160.648V124.484ZM151.048 124.484V123.484H150.624L150.33 123.789L151.048 124.484ZM149.128 126.468L148.41 125.773L148.128 126.064V126.468H149.128ZM149.128 128.26V129.26H150.128V128.26H149.128ZM140.808 128.26H139.808V129.26H140.808V128.26ZM140.808 124.612L140.098 123.908L139.808 124.201V124.612H140.808ZM147.656 117.7V116.7H147.239L146.946 116.996L147.656 117.7ZM164.104 117.7L164.815 116.996L164.521 116.7H164.104V117.7ZM170.952 124.612H171.952V124.201L171.663 123.908L170.952 124.612ZM170.952 149.572V150.572H171.952V149.572H170.952ZM163.336 149.572H162.336V150.572H163.336V149.572ZM163.336 145.028H164.336V142.683L162.644 144.307L163.336 145.028ZM158.6 149.572V150.572H159.002L159.293 150.294L158.6 149.572ZM146.44 149.572L145.733 150.279L146.026 150.572H146.44V149.572ZM158.024 143.044V144.044H158.426L158.716 143.766L158.024 143.044ZM162.632 138.628L163.324 139.35L163.632 139.055V138.628H162.632ZM162.632 136.516H163.632V135.516H162.632V136.516ZM150.6 136.516V135.516H150.186L149.893 135.809L150.6 136.516ZM148.872 138.244L148.165 137.537L147.872 137.83V138.244H148.872ZM148.872 141.444H147.872V141.858L148.165 142.151L148.872 141.444ZM150.472 143.044L149.765 143.751L150.058 144.044H150.472V143.044ZM141.552 143.684V136.388H139.552V143.684H141.552ZM141.259 137.095L147.147 131.207L145.733 129.793L139.845 135.681L141.259 137.095ZM146.44 131.5H162.632V129.5H146.44V131.5ZM163.632 130.5V126.468H161.632V130.5H163.632ZM163.339 125.761L161.355 123.777L159.941 125.191L161.925 127.175L163.339 125.761ZM160.648 123.484H151.048V125.484H160.648V123.484ZM150.33 123.789L148.41 125.773L149.847 127.164L151.767 125.18L150.33 123.789ZM148.128 126.468V128.26H150.128V126.468H148.128ZM149.128 127.26H140.808V129.26H149.128V127.26ZM141.808 128.26V124.612H139.808V128.26H141.808ZM141.519 125.316L148.367 118.404L146.946 116.996L140.098 123.908L141.519 125.316ZM147.656 118.7H164.104V116.7H147.656V118.7ZM163.394 118.404L170.242 125.316L171.663 123.908L164.815 116.996L163.394 118.404ZM169.952 124.612V149.572H171.952V124.612H169.952ZM170.952 148.572H163.336V150.572H170.952V148.572ZM164.336 149.572V145.028H162.336V149.572H164.336ZM162.644 144.307L157.908 148.851L159.293 150.294L164.029 145.75L162.644 144.307ZM158.6 148.572H146.44V150.572H158.6V148.572ZM147.147 148.865L141.259 142.977L139.845 144.391L145.733 150.279L147.147 148.865ZM158.716 143.766L163.324 139.35L161.94 137.906L157.332 142.322L158.716 143.766ZM163.632 138.628V136.516H161.632V138.628H163.632ZM162.632 135.516H150.6V137.516H162.632V135.516ZM149.893 135.809L148.165 137.537L149.579 138.951L151.307 137.223L149.893 135.809ZM147.872 138.244V141.444H149.872V138.244H147.872ZM148.165 142.151L149.765 143.751L151.179 142.337L149.579 140.737L148.165 142.151ZM150.472 144.044H158.024V142.044H150.472V144.044ZM178.325 117.7V116.7H177.325V117.7H178.325ZM186.133 117.7H187.133V116.7H186.133V117.7ZM186.133 123.012H185.133V125.491L186.853 123.706L186.133 123.012ZM191.253 117.7V116.7H190.828L190.533 117.006L191.253 117.7ZM200.341 117.7H201.341V116.7H200.341V117.7ZM200.341 124.868V125.868H201.341V124.868H200.341ZM192.981 124.868V123.868H192.558L192.263 124.172L192.981 124.868ZM186.773 131.268L186.055 130.572L185.773 130.863V131.268H186.773ZM186.773 149.572V150.572H187.773V149.572H186.773ZM178.325 149.572H177.325V150.572H178.325V149.572ZM178.325 118.7H186.133V116.7H178.325V118.7ZM185.133 117.7V123.012H187.133V117.7H185.133ZM186.853 123.706L191.973 118.394L190.533 117.006L185.413 122.318L186.853 123.706ZM191.253 118.7H200.341V116.7H191.253V118.7ZM199.341 117.7V124.868H201.341V117.7H199.341ZM200.341 123.868H192.981V125.868H200.341V123.868ZM192.263 124.172L186.055 130.572L187.491 131.964L193.699 125.564L192.263 124.172ZM185.773 131.268V149.572H187.773V131.268H185.773ZM186.773 148.572H178.325V150.572H186.773V148.572ZM179.325 149.572V117.7H177.325V149.572H179.325Z" fill="white"/>
<path d="M188.949 159.928L52.1504 159.928" stroke="white" stroke-width="5"/>
</svg>
