<svg width="343" height="306" viewBox="0 0 343 306" fill="none" xmlns="http://www.w3.org/2000/svg">
<path d="M220.378 60.1089L220.245 60.0683L220.108 60.0526C212.026 59.1336 199.279 58.031 187.281 57.7091C181.284 57.5482 175.448 57.5817 170.464 57.9355C165.533 58.2856 161.257 58.9588 158.495 60.1691C158.314 60.2483 158.131 60.3288 157.945 60.4104C154.445 61.9479 150.035 63.8856 143.297 65.2672C136.191 66.7244 126.443 67.5712 112.463 66.5912C100.668 65.7643 89.8154 62.5832 77.8058 56.8766C69.6833 48.3849 55.3855 35.6933 42.7591 26.7903C36.4192 22.32 30.3783 18.7162 25.7002 17.1298C23.3905 16.3465 21.1706 15.9681 19.3462 16.4443C18.3953 16.6924 17.5423 17.1763 16.8812 17.9457C16.2277 18.7064 15.8369 19.6583 15.6538 20.729C12.998 36.2636 10.0919 60.9999 10.0021 84.7688C9.95726 96.6529 10.6161 108.335 12.3767 118.524C14.1173 128.596 16.9601 137.367 21.396 143.412C23.0293 147.365 22.717 151.955 21.3553 157.071C20.2588 161.191 18.5386 165.465 16.7764 169.843C16.3157 170.988 15.8521 172.14 15.396 173.298C13.2279 178.804 11.235 184.443 10.847 189.749C10.453 195.137 11.7104 200.264 16.0788 204.575C24.0779 212.468 50.9391 238.26 82.7153 261.224C98.6022 272.704 115.758 283.508 132.43 291.011C149.072 298.501 165.398 302.78 179.564 300.999C193.611 299.234 210.297 292.335 227.319 282.854C244.369 273.357 261.876 261.2 277.592 248.797C293.308 236.394 307.266 223.718 317.212 213.167C322.181 207.896 326.177 203.124 328.893 199.162C330.249 197.182 331.31 195.369 332.011 193.77C332.696 192.208 333.112 190.685 332.973 189.346C332.178 181.649 330.026 169.285 326.597 157.01C323.224 144.937 318.556 132.725 312.59 125.182C311.22 118.812 311.914 110.013 313.487 99.8362C314.282 94.6897 315.292 89.2482 316.343 83.6578C316.439 83.1479 316.535 82.6369 316.632 82.1248C317.591 77.0286 318.571 71.824 319.434 66.6519C321.332 55.2851 322.69 43.9563 322.025 34.0716C321.362 24.1981 318.663 15.514 312.202 9.72436C308.516 6.42172 305.29 4.58306 302.078 4.59904C298.817 4.61527 296.055 6.53453 293.301 9.44508C290.683 12.2121 287.818 16.1554 284.33 20.9571C284.138 21.2218 283.944 21.4892 283.747 21.7591C279.967 26.9598 275.393 33.2075 269.487 40.3027C250.894 62.639 228.822 62.6976 220.378 60.1089Z" fill="#0E0E0E" stroke="white" stroke-width="3"/>
<path d="M175.283 247.737L175.032 247.697L174.996 247.949C174.504 251.37 174.896 253.737 175.821 255.369C176.749 257.007 178.194 257.866 179.725 258.314C181.249 258.76 182.874 258.802 184.188 258.799C184.373 258.799 184.551 258.798 184.721 258.797C185.163 258.794 185.554 258.791 185.886 258.805C186.115 258.814 186.306 258.831 186.457 258.859C186.579 258.882 186.661 258.909 186.713 258.936C188.114 261.131 190.743 261.279 193.053 260.715C194.227 260.428 195.349 259.953 196.244 259.437C196.691 259.18 197.085 258.91 197.403 258.646C197.632 258.455 197.827 258.262 197.974 258.073C198.869 258.529 200.002 258.237 201.087 257.614C202.279 256.929 203.506 255.795 204.506 254.541C205.505 253.289 206.298 251.892 206.596 250.671C206.745 250.059 206.775 249.473 206.626 248.965C206.475 248.448 206.144 248.028 205.608 247.761C204.604 247.258 203.602 247.2 202.548 247.368C201.599 247.52 200.59 247.859 199.493 248.228C199.385 248.264 199.275 248.301 199.165 248.338C196.704 249.162 193.697 250.093 189.546 249.626C182.817 248.871 177.232 248.052 175.283 247.737Z" fill="white" stroke="black" stroke-width="0.5"/>
<path d="M65.1028 176.133C76.1136 170.933 106.271 170.46 138.816 210.168C134.591 215.84 82.1202 242.312 65.1028 176.133Z" fill="white"/>
<path d="M230.079 210.168C234.806 193.781 252.767 162.519 286.802 168.57C289.638 172.351 283.024 227.185 230.079 210.168Z" fill="white"/>
<path d="M105.76 208.598C103.943 207.937 97.2518 199.842 92.13 191.663C87.0082 183.485 88.0822 173.82 88.0822 173.82L102.952 178.363L115.591 186.128C115.591 186.128 112.121 195.546 110.964 199.098C109.808 202.65 107.578 209.259 105.76 208.598Z" fill="black"/>
<path d="M260.029 202.77C261.329 201.943 264.388 193.69 266.126 185.55C267.864 177.41 264.032 168.649 264.032 168.649L253.136 174.621L245.064 183.287C245.064 183.287 250.799 191.531 252.837 194.659C254.874 197.787 258.729 203.597 260.029 202.77Z" fill="black"/>
</svg>
